<svg width="1919.9999999999998" height="50" xmlns="http://www.w3.org/2000/svg" xmlns:xlink="http://www.w3.org/1999/xlink" preserveAspectRatio="xMidYMid meet" version="1.1">
 <defs>
  <path id="agk5C8cYH" d="m782.95,17c-15.46,-19.61 -32.14,-19.61 -50.03,0l-470.92,0"/>
  <path id="a32u0xx6zZ" d="m875.95,16.95c-30.3,0.89 -56.06,17.29 -66.66,0c-7.08,-11.53 -16.67,-11.53 -28.79,0"/>
  <path id="b2215mIIVV" d="m1385.4,17l-511,0"/>
  <path id="a7lFwzMd4c" d="m1479.4,17c-38,-9.73 -69.66,-9.73 -95,0"/>
  <path id="b1c2djASk2" d="m1885.4,17c-12.1,7 -48.94,7 -110.52,0l-295.48,0"/>
  <path id="foCYxQ4x4" d="m1923.4,17l-38,0"/>
  <path id="edqtJQTjL" d="m238.5,16.5c7.57,10.23 15.91,10.23 25,0"/>
  <path id="f8D6NerS9" d="m240,17l-240,0"/>
 </defs>
 <g>
  <title>Layer 1</title>
  <g id="svg_1">
   <g id="svg_2">
    <g id="svg_3">
     <g id="svg_4">
      <use id="svg_5" stroke-width="4" stroke="#000000" fill-opacity="0" xlink:href="#agk5C8cYH"/>
     </g>
    </g>
    <g id="svg_6">
     <g id="svg_7">
      <use id="svg_8" stroke-width="4" stroke="#000000" fill-opacity="0" xlink:href="#a32u0xx6zZ"/>
     </g>
    </g>
    <g id="svg_9">
     <g id="svg_10">
      <use id="svg_11" stroke-width="4" stroke="#000000" fill-opacity="0" xlink:href="#b2215mIIVV"/>
     </g>
    </g>
    <g id="svg_12">
     <g id="svg_13">
      <use id="svg_14" stroke-width="4" stroke="#000000" fill-opacity="0" xlink:href="#a7lFwzMd4c"/>
     </g>
    </g>
    <g id="svg_15">
     <g id="svg_16">
      <use id="svg_17" stroke-width="4" stroke="#000000" fill-opacity="0" xlink:href="#b1c2djASk2"/>
     </g>
    </g>
    <g id="svg_18">
     <g id="svg_19">
      <use id="svg_20" stroke-width="4" stroke="#000000" fill-opacity="0" xlink:href="#foCYxQ4x4"/>
     </g>
    </g>
    <g id="svg_21">
     <g id="svg_22">
      <use id="svg_23" stroke-width="4" stroke="#000000" fill-opacity="0" xlink:href="#edqtJQTjL"/>
     </g>
    </g>
    <g id="svg_24">
     <g id="svg_25">
      <use id="svg_26" stroke-width="4" stroke="#000000" fill-opacity="0" xlink:href="#f8D6NerS9"/>
     </g>
    </g>
   </g>
  </g>
  <rect id="svg_28" height="2" width="10" y="28.06856" x="7.18456" stroke-width="0" stroke="#000" fill="#000000"/>
  <rect id="svg_29" height="2" width="10" y="22.64867" x="112.30288" stroke-width="0" stroke="#000" fill="#000000"/>
  <rect stroke="#000" id="svg_33" height="1.41415" width="5.96967" y="25.49484" x="134.80815" stroke-width="0" fill="#000000"/>
  <rect id="svg_34" height="0.60607" width="2" y="29.93933" x="127.18171" stroke-width="0" stroke="#000" fill="#000000"/>
  <rect stroke="#000" id="svg_35" height="1.41415" width="5.96967" y="12.89937" x="762.34677" stroke-width="0" fill="#000000"/>
  <rect stroke="#000" id="svg_36" height="1.41415" width="5.96967" y="23.53832" x="33.50371" stroke-width="0" fill="#000000"/>
  <rect id="svg_37" height="0.60607" width="2" y="24.50454" x="82.83384" stroke-width="0" stroke="#000" fill="#000000"/>
  <rect stroke="#000" id="svg_39" height="1.41415" width="5.96967" y="27.6225" x="214.80797" stroke-width="0" fill="#000000"/>
  <rect id="svg_40" height="0.60607" width="2" y="24.40742" x="227.18148" stroke-width="0" stroke="#000" fill="#000000"/>
  <rect id="svg_41" height="0.60607" width="2" y="23.13083" x="279.57451" stroke-width="0" stroke="#000" fill="#000000"/>
  <rect stroke="#000" id="svg_42" height="1.41415" width="5.96967" y="25.92038" x="400" stroke-width="0" fill="#000000"/>
  <rect id="svg_43" height="2" width="10" y="24.10854" x="350" stroke-width="0" stroke="#000" fill="#000000"/>
  <g transform="rotate(180 540.926 26.597)" id="svg_51">
   <rect id="svg_44" height="2" width="10" y="28.06856" x="474.12947" stroke-width="0" stroke="#000" fill="#000000"/>
   <rect id="svg_45" height="2" width="10" y="22.64867" x="579.24779" stroke-width="0" stroke="#000" fill="#000000"/>
   <rect stroke="#000" id="svg_46" height="1.41415" width="5.96967" y="25.49484" x="601.75307" stroke-width="0" fill="#000000"/>
   <rect id="svg_47" height="0.60607" width="2" y="29.93933" x="594.12663" stroke-width="0" stroke="#000" fill="#000000"/>
   <rect stroke="#000" id="svg_48" height="1.41415" width="5.96967" y="27.45137" x="540.66605" stroke-width="0" fill="#000000"/>
   <rect stroke="#000" id="svg_49" height="1.41415" width="5.96967" y="23.53832" x="500.44862" stroke-width="0" fill="#000000"/>
   <rect id="svg_50" height="0.60607" width="2" y="24.50454" x="549.77876" stroke-width="0" stroke="#000" fill="#000000"/>
  </g>
  <g id="svg_59">
   <rect id="svg_52" height="2" width="10" y="30.35602" x="920.33683" stroke-width="0" stroke="#000" fill="#000000"/>
   <rect id="svg_53" height="2" width="10" y="24.93613" x="1025.45515" stroke-width="0" stroke="#000" fill="#000000"/>
   <rect stroke="#000" id="svg_54" height="1.41415" width="5.96967" y="27.78231" x="1047.96043" stroke-width="0" fill="#000000"/>
   <rect id="svg_55" height="0.60607" width="2" y="32.22679" x="1040.33399" stroke-width="0" stroke="#000" fill="#000000"/>
   <rect stroke="#000" id="svg_56" height="1.41415" width="5.96967" y="29.73883" x="986.87341" stroke-width="0" fill="#000000"/>
   <rect stroke="#000" id="svg_57" height="1.41415" width="5.96967" y="25.82579" x="946.65598" stroke-width="0" fill="#000000"/>
   <rect id="svg_58" height="0.60607" width="2" y="26.792" x="995.98611" stroke-width="0" stroke="#000" fill="#000000"/>
  </g>
  <g transform="rotate(180 1366.8 28.8844)" id="svg_67">
   <rect id="svg_60" height="2" width="10" y="30.35602" x="1299.99998" stroke-width="0" stroke="#000" fill="#000000"/>
   <rect id="svg_61" height="2" width="10" y="24.93613" x="1405.1183" stroke-width="0" stroke="#000" fill="#000000"/>
   <rect stroke="#000" id="svg_62" height="1.41415" width="5.96967" y="27.78231" x="1427.62357" stroke-width="0" fill="#000000"/>
   <rect id="svg_63" height="0.60607" width="2" y="32.22679" x="1419.99713" stroke-width="0" stroke="#000" fill="#000000"/>
   <rect stroke="#000" id="svg_64" height="1.41415" width="5.96967" y="29.73883" x="1366.53656" stroke-width="0" fill="#000000"/>
   <rect stroke="#000" id="svg_65" height="1.41415" width="5.96967" y="25.82579" x="1326.31912" stroke-width="0" fill="#000000"/>
   <rect id="svg_66" height="0.60607" width="2" y="26.792" x="1375.64926" stroke-width="0" stroke="#000" fill="#000000"/>
  </g>
  <g id="svg_75">
   <rect id="svg_68" height="2" width="10" y="30.35602" x="1649.99998" stroke-width="0" stroke="#000" fill="#000000"/>
   <rect id="svg_69" height="2" width="10" y="24.93613" x="1755.1183" stroke-width="0" stroke="#000" fill="#000000"/>
   <rect stroke="#000" id="svg_70" height="1.41415" width="5.96967" y="27.78231" x="1777.62357" stroke-width="0" fill="#000000"/>
   <rect id="svg_71" height="0.60607" width="2" y="32.22679" x="1769.99713" stroke-width="0" stroke="#000" fill="#000000"/>
   <rect stroke="#000" id="svg_72" height="1.41415" width="5.96967" y="29.73883" x="1716.53656" stroke-width="0" fill="#000000"/>
   <rect stroke="#000" id="svg_73" height="1.41415" width="5.96967" y="25.82579" x="1676.31912" stroke-width="0" fill="#000000"/>
   <rect id="svg_74" height="0.60607" width="2" y="26.792" x="1725.64926" stroke-width="0" stroke="#000" fill="#000000"/>
  </g>
  <g id="svg_79">
   <rect stroke="#000" id="svg_76" height="1.41415" width="5.96967" y="29.6359" x="740.60414" stroke-width="0" fill="#000000"/>
   <rect id="svg_77" height="0.60607" width="2" y="26.42083" x="752.97765" stroke-width="0" stroke="#000" fill="#000000"/>
   <rect id="svg_78" height="0.60607" width="2" y="25.14423" x="805.37068" stroke-width="0" stroke="#000" fill="#000000"/>
  </g>
  <g transform="rotate(180 680.699 32.1239)" id="svg_83">
   <rect stroke="#000" id="svg_80" height="1.41415" width="5.96967" y="33.6627" x="647.31655" stroke-width="0" fill="#000000"/>
   <rect id="svg_81" height="0.60607" width="2" y="30.44763" x="659.69006" stroke-width="0" stroke="#000" fill="#000000"/>
   <rect id="svg_82" height="0.60607" width="2" y="29.17104" x="712.08309" stroke-width="0" stroke="#000" fill="#000000"/>
  </g>
  <g id="svg_87">
   <rect stroke="#000" id="svg_84" height="1.41415" width="5.96967" y="29.6359" x="1149.99995" stroke-width="0" fill="#000000"/>
   <rect id="svg_85" height="0.60607" width="2" y="26.42083" x="1162.37347" stroke-width="0" stroke="#000" fill="#000000"/>
   <rect id="svg_86" height="0.60607" width="2" y="25.14423" x="1214.7665" stroke-width="0" stroke="#000" fill="#000000"/>
  </g>
  <g transform="rotate(180 1544.46 28.0971)" id="svg_91">
   <rect stroke="#000" id="svg_88" height="1.41415" width="5.96967" y="29.6359" x="1511.0742" stroke-width="0" fill="#000000"/>
   <rect id="svg_89" height="0.60607" width="2" y="26.42083" x="1523.44771" stroke-width="0" stroke="#000" fill="#000000"/>
   <rect id="svg_90" height="0.60607" width="2" y="25.14423" x="1575.84074" stroke-width="0" stroke="#000" fill="#000000"/>
  </g>
  <g id="svg_95">
   <rect stroke="#000" id="svg_92" height="1.41415" width="5.96967" y="39.03177" x="1828.18757" stroke-width="0" fill="#000000"/>
   <rect id="svg_93" height="0.60607" width="2" y="35.8167" x="1840.56108" stroke-width="0" stroke="#000" fill="#000000"/>
   <rect id="svg_94" height="0.60607" width="2" y="34.54011" x="1892.95411" stroke-width="0" stroke="#000" fill="#000000"/>
  </g>
  <line transform="rotate(90 1480.49 17.8892)" id="svg_97" y2="17.88923" x2="1481.54843" y1="17.88923" x1="1479.43246" stroke-width="4" stroke="#000" fill="none"/>
  <line id="svg_98" y2="17.07092" x2="1891.40323" y1="17.21357" x1="1884.55589" stroke-width="4" stroke="#000" fill="none"/>
  <line transform="rotate(90 1886.7 15.6444)" id="svg_99" y2="15.64439" x2="1887.26629" y1="15.64439" x1="1886.12507" stroke-width="4" stroke="#000" fill="none"/>
 </g>
</svg>