<?xml version="1.0" encoding="UTF-8" standalone="no"?>
<!DOCTYPE svg PUBLIC "-//W3C//DTD SVG 1.1//EN" "http://www.w3.org/Graphics/SVG/1.1/DTD/svg11.dtd">
<svg version="1.1" xmlns="http://www.w3.org/2000/svg" xmlns:xlink="http://www.w3.org/1999/xlink" preserveAspectRatio="xMidYMid meet" viewBox="0 0 1920 50" width="1920" height="50"><defs><path d="M782.95 17C767.49 -2.61 750.81 -2.61 732.92 17L262 17" id="agk5C8cYH"></path><path d="M875.95 16.95C845.65 17.84 819.89 34.24 809.29 16.95C802.21 5.42 792.62 5.42 780.5 16.95" id="a32u0xx6zZ"></path><path d="M1385.4 17L874.4 17" id="b2215mIIVV"></path><path d="M1479.4 17C1441.4 7.27 1409.74 7.27 1384.4 17" id="a7lFwzMd4c"></path><path d="M1885.4 17C1873.3 24 1836.46 24 1774.88 17L1479.4 17" id="b1c2djASk2"></path><path d="M1923.4 17L1885.4 17" id="foCYxQ4x4"></path><path d="M238.5 16.5C246.07 26.73 254.41 26.73 263.5 16.5" id="edqtJQTjL"></path><path d="M240 17L0 17" id="f8D6NerS9"></path></defs><g><g><g><g><use xlink:href="#agk5C8cYH" opacity="1" fill-opacity="0" stroke="#000000" stroke-width="4" stroke-opacity="1"></use></g></g><g><g><use xlink:href="#a32u0xx6zZ" opacity="1" fill-opacity="0" stroke="#000000" stroke-width="4" stroke-opacity="1"></use></g></g><g><g><use xlink:href="#b2215mIIVV" opacity="1" fill-opacity="0" stroke="#000000" stroke-width="4" stroke-opacity="1"></use></g></g><g><g><use xlink:href="#a7lFwzMd4c" opacity="1" fill-opacity="0" stroke="#000000" stroke-width="4" stroke-opacity="1"></use></g></g><g><g><use xlink:href="#b1c2djASk2" opacity="1" fill-opacity="0" stroke="#000000" stroke-width="4" stroke-opacity="1"></use></g></g><g><g><use xlink:href="#foCYxQ4x4" opacity="1" fill-opacity="0" stroke="#000000" stroke-width="4" stroke-opacity="1"></use></g></g><g><g><use xlink:href="#edqtJQTjL" opacity="1" fill-opacity="0" stroke="#000000" stroke-width="4" stroke-opacity="1"></use></g></g><g><g><use xlink:href="#f8D6NerS9" opacity="1" fill-opacity="0" stroke="#000000" stroke-width="4" stroke-opacity="1"></use></g></g></g></g></svg>